<svg width="12" height="19" viewBox="0 0 12 19" fill="none" xmlns="http://www.w3.org/2000/svg">
<path d="M7.91902 13.2623L10.5725 15.8239C11.116 16.3475 11.116 17.1979 10.5725 17.7221C10.0294 18.2462 9.14932 18.2462 8.60687 17.7221L5.99801 15.2049L3.39142 17.7221C3.11963 17.9839 2.76349 18.1149 2.40735 18.1149C2.05178 18.1149 1.69621 17.9839 1.42441 17.7221C0.881398 17.1979 0.881398 16.3481 1.42385 15.8239L4.07758 13.2623C3.1114 13.0498 2.17958 12.6803 1.32132 12.1605C0.671803 11.7652 0.476693 10.937 0.885942 10.3094C1.29406 9.68111 2.15232 9.49195 2.80297 9.88727C4.74612 11.0672 7.24933 11.0675 9.19362 9.88727C9.84428 9.49195 10.7023 9.68111 11.1112 10.3094C11.5205 10.9364 11.3248 11.7652 10.6753 12.1605C9.81701 12.6808 8.8852 13.0498 7.91902 13.2623Z" fill="white" fill-opacity="0.8"/>
<path fill-rule="evenodd" clip-rule="evenodd" d="M1.24023 4.94199C1.24023 7.46797 3.36913 9.52269 5.98679 9.52269C8.60502 9.52269 10.7333 7.46797 10.7333 4.94199C10.7333 2.41519 8.60502 0.359924 5.98679 0.359924C3.36913 0.359924 1.24023 2.41519 1.24023 4.94199ZM7.95202 4.94151C7.95202 3.89537 7.07048 3.04469 5.98672 3.04469C4.90381 3.04469 4.02141 3.89537 4.02141 4.94151C4.02141 5.98682 4.90381 6.83805 5.98672 6.83805C7.07048 6.83805 7.95202 5.98682 7.95202 4.94151Z" fill="white" fill-opacity="0.8"/>
</svg>
